<mxfile host="app.diagrams.net" agent="Mozilla/5.0 (Windows NT 10.0; Win64; x64) AppleWebKit/537.36 (KHTML, like Gecko) Chrome/131.0.0.0 Safari/537.36" version="25.0.3">
  <diagram name="Page-1" id="ijK9BK9C6IE82oL-Mx07">
    <mxGraphModel dx="1687" dy="762" grid="1" gridSize="10" guides="1" tooltips="1" connect="1" arrows="1" fold="1" page="1" pageScale="1" pageWidth="1600" pageHeight="1200" math="0" shadow="0">
      <root>
        <mxCell id="0" />
        <mxCell id="1" parent="0" />
        <mxCell id="2yctgf6zyrmDkE7ViK6A-128" value="" style="ellipse;whiteSpace=wrap;html=1;aspect=fixed;" parent="1" vertex="1">
          <mxGeometry x="38" y="70" width="380" height="380" as="geometry" />
        </mxCell>
        <mxCell id="2yctgf6zyrmDkE7ViK6A-127" value="" style="ellipse;whiteSpace=wrap;html=1;aspect=fixed;" parent="1" vertex="1">
          <mxGeometry x="19.130000000000003" y="590" width="363.75" height="363.75" as="geometry" />
        </mxCell>
        <mxCell id="2yctgf6zyrmDkE7ViK6A-6" value="" style="shape=mxgraph.cisco.storage.cloud;sketch=0;html=1;pointerEvents=1;dashed=0;fillColor=#036897;strokeColor=#ffffff;strokeWidth=2;verticalLabelPosition=bottom;verticalAlign=top;align=center;outlineConnect=0;" parent="1" vertex="1">
          <mxGeometry x="624" y="320" width="186" height="106" as="geometry" />
        </mxCell>
        <mxCell id="2yctgf6zyrmDkE7ViK6A-5" value="" style="shape=mxgraph.cisco.routers.router;sketch=0;html=1;pointerEvents=1;dashed=0;fillColor=#036897;strokeColor=#ffffff;strokeWidth=2;verticalLabelPosition=bottom;verticalAlign=top;align=center;outlineConnect=0;" parent="1" vertex="1">
          <mxGeometry x="678" y="346.5" width="78" height="53" as="geometry" />
        </mxCell>
        <mxCell id="2yctgf6zyrmDkE7ViK6A-8" value="" style="shape=mxgraph.cisco.buildings.small_business;sketch=0;html=1;pointerEvents=1;dashed=0;fillColor=#036897;strokeColor=#ffffff;strokeWidth=2;verticalLabelPosition=bottom;verticalAlign=top;align=center;outlineConnect=0;" parent="1" vertex="1">
          <mxGeometry x="150" y="530" width="98" height="54" as="geometry" />
        </mxCell>
        <mxCell id="2yctgf6zyrmDkE7ViK6A-9" value="" style="shape=mxgraph.cisco.buildings.small_business;sketch=0;html=1;pointerEvents=1;dashed=0;fillColor=#036897;strokeColor=#ffffff;strokeWidth=2;verticalLabelPosition=bottom;verticalAlign=top;align=center;outlineConnect=0;" parent="1" vertex="1">
          <mxGeometry x="693" y="606" width="98" height="54" as="geometry" />
        </mxCell>
        <mxCell id="2yctgf6zyrmDkE7ViK6A-13" value="" style="shape=mxgraph.cisco.buildings.small_business;sketch=0;html=1;pointerEvents=1;dashed=0;fillColor=#036897;strokeColor=#ffffff;strokeWidth=2;verticalLabelPosition=bottom;verticalAlign=top;align=center;outlineConnect=0;" parent="1" vertex="1">
          <mxGeometry x="1012" y="390" width="98" height="54" as="geometry" />
        </mxCell>
        <mxCell id="2yctgf6zyrmDkE7ViK6A-14" value="" style="shape=mxgraph.cisco.buildings.small_business;sketch=0;html=1;pointerEvents=1;dashed=0;fillColor=#036897;strokeColor=#ffffff;strokeWidth=2;verticalLabelPosition=bottom;verticalAlign=top;align=center;outlineConnect=0;" parent="1" vertex="1">
          <mxGeometry x="820" y="40" width="98" height="54" as="geometry" />
        </mxCell>
        <mxCell id="2yctgf6zyrmDkE7ViK6A-15" style="edgeStyle=orthogonalEdgeStyle;rounded=0;orthogonalLoop=1;jettySize=auto;html=1;exitX=0.5;exitY=1;exitDx=0;exitDy=0;exitPerimeter=0;" parent="1" source="2yctgf6zyrmDkE7ViK6A-5" target="2yctgf6zyrmDkE7ViK6A-5" edge="1">
          <mxGeometry relative="1" as="geometry" />
        </mxCell>
        <mxCell id="2yctgf6zyrmDkE7ViK6A-24" value="" style="shape=mxgraph.cisco.routers.wireless_router;sketch=0;html=1;pointerEvents=1;dashed=0;fillColor=#036897;strokeColor=#ffffff;strokeWidth=2;verticalLabelPosition=bottom;verticalAlign=top;align=center;outlineConnect=0;" parent="1" vertex="1">
          <mxGeometry x="220" y="700" width="50" height="57" as="geometry" />
        </mxCell>
        <mxCell id="2yctgf6zyrmDkE7ViK6A-25" value="" style="shape=mxgraph.cisco.computers_and_peripherals.scanner;sketch=0;html=1;pointerEvents=1;dashed=0;fillColor=#036897;strokeColor=#ffffff;strokeWidth=2;verticalLabelPosition=bottom;verticalAlign=top;align=center;outlineConnect=0;" parent="1" vertex="1">
          <mxGeometry x="109.5" y="670" width="50" height="55" as="geometry" />
        </mxCell>
        <mxCell id="2yctgf6zyrmDkE7ViK6A-31" value="" style="shape=mxgraph.cisco.computers_and_peripherals.laptop;sketch=0;html=1;pointerEvents=1;dashed=0;fillColor=#036897;strokeColor=#ffffff;strokeWidth=2;verticalLabelPosition=bottom;verticalAlign=top;align=center;outlineConnect=0;" parent="1" vertex="1">
          <mxGeometry x="55" y="768.54" width="70" height="51" as="geometry" />
        </mxCell>
        <mxCell id="2yctgf6zyrmDkE7ViK6A-32" value="" style="sketch=0;aspect=fixed;pointerEvents=1;shadow=0;dashed=0;html=1;strokeColor=none;labelPosition=center;verticalLabelPosition=bottom;verticalAlign=top;align=center;fillColor=#00188D;shape=mxgraph.mscae.enterprise.wireless_connection;rotation=-45;" parent="1" vertex="1">
          <mxGeometry x="150" y="746.88" width="42" height="50" as="geometry" />
        </mxCell>
        <mxCell id="2yctgf6zyrmDkE7ViK6A-33" value="" style="shape=mxgraph.cisco.routers.wireless_router;html=1;pointerEvents=1;dashed=0;fillColor=#036897;strokeColor=#ffffff;strokeWidth=2;verticalLabelPosition=bottom;verticalAlign=top;align=center;outlineConnect=0;" parent="1" vertex="1">
          <mxGeometry x="340" y="213" width="58" height="57" as="geometry" />
        </mxCell>
        <mxCell id="2yctgf6zyrmDkE7ViK6A-44" value="" style="shape=mxgraph.cisco.switches.layer_2_remote_switch;sketch=0;html=1;pointerEvents=1;dashed=0;fillColor=#036897;strokeColor=#ffffff;strokeWidth=2;verticalLabelPosition=bottom;verticalAlign=top;align=center;outlineConnect=0;" parent="1" vertex="1">
          <mxGeometry x="222" y="213" width="69" height="40" as="geometry" />
        </mxCell>
        <mxCell id="2yctgf6zyrmDkE7ViK6A-46" value="" style="shape=mxgraph.cisco.computers_and_peripherals.pc;sketch=0;html=1;pointerEvents=1;dashed=0;fillColor=#036897;strokeColor=#ffffff;strokeWidth=2;verticalLabelPosition=bottom;verticalAlign=top;align=center;outlineConnect=0;" parent="1" vertex="1">
          <mxGeometry x="60" y="220" width="60" height="60" as="geometry" />
        </mxCell>
        <mxCell id="2yctgf6zyrmDkE7ViK6A-47" value="" style="shape=mxgraph.cisco.computers_and_peripherals.pc;sketch=0;html=1;pointerEvents=1;dashed=0;fillColor=#036897;strokeColor=#ffffff;strokeWidth=2;verticalLabelPosition=bottom;verticalAlign=top;align=center;outlineConnect=0;" parent="1" vertex="1">
          <mxGeometry x="222" y="330" width="61" height="60" as="geometry" />
        </mxCell>
        <mxCell id="2yctgf6zyrmDkE7ViK6A-48" value="" style="shape=mxgraph.cisco.computers_and_peripherals.pc;sketch=0;html=1;pointerEvents=1;dashed=0;fillColor=#036897;strokeColor=#ffffff;strokeWidth=2;verticalLabelPosition=bottom;verticalAlign=top;align=center;outlineConnect=0;" parent="1" vertex="1">
          <mxGeometry x="215" y="110" width="60" height="60" as="geometry" />
        </mxCell>
        <mxCell id="2yctgf6zyrmDkE7ViK6A-67" value="" style="shape=mxgraph.cisco.computers_and_peripherals.pc;sketch=0;html=1;pointerEvents=1;dashed=0;fillColor=#036897;strokeColor=#ffffff;strokeWidth=2;verticalLabelPosition=bottom;verticalAlign=top;align=center;outlineConnect=0;" parent="1" vertex="1">
          <mxGeometry x="111" y="300" width="69" height="60" as="geometry" />
        </mxCell>
        <mxCell id="2yctgf6zyrmDkE7ViK6A-52" value="" style="shape=mxgraph.cisco.computers_and_peripherals.pc;sketch=0;html=1;pointerEvents=1;dashed=0;fillColor=#036897;strokeColor=#ffffff;strokeWidth=2;verticalLabelPosition=bottom;verticalAlign=top;align=center;outlineConnect=0;" parent="1" vertex="1">
          <mxGeometry x="99" y="140" width="71" height="60" as="geometry" />
        </mxCell>
        <mxCell id="2yctgf6zyrmDkE7ViK6A-86" value="" style="endArrow=none;html=1;rounded=0;entryX=0.5;entryY=0;entryDx=0;entryDy=0;entryPerimeter=0;exitX=0.86;exitY=0.85;exitDx=0;exitDy=0;exitPerimeter=0;" parent="1" source="2yctgf6zyrmDkE7ViK6A-46" target="2yctgf6zyrmDkE7ViK6A-44" edge="1">
          <mxGeometry width="50" height="50" relative="1" as="geometry">
            <mxPoint x="564.5" y="410" as="sourcePoint" />
            <mxPoint x="614.5" y="360" as="targetPoint" />
          </mxGeometry>
        </mxCell>
        <mxCell id="2yctgf6zyrmDkE7ViK6A-87" value="" style="endArrow=none;html=1;rounded=0;exitX=0.83;exitY=0.5;exitDx=0;exitDy=0;exitPerimeter=0;" parent="1" source="2yctgf6zyrmDkE7ViK6A-67" target="2yctgf6zyrmDkE7ViK6A-44" edge="1">
          <mxGeometry width="50" height="50" relative="1" as="geometry">
            <mxPoint x="560" y="510" as="sourcePoint" />
            <mxPoint x="610" y="460" as="targetPoint" />
          </mxGeometry>
        </mxCell>
        <mxCell id="2yctgf6zyrmDkE7ViK6A-89" value="" style="endArrow=none;html=1;rounded=0;entryX=0.5;entryY=1;entryDx=0;entryDy=0;entryPerimeter=0;exitX=0.5;exitY=0;exitDx=0;exitDy=0;exitPerimeter=0;" parent="1" source="2yctgf6zyrmDkE7ViK6A-47" target="2yctgf6zyrmDkE7ViK6A-44" edge="1">
          <mxGeometry width="50" height="50" relative="1" as="geometry">
            <mxPoint x="690.5" y="520" as="sourcePoint" />
            <mxPoint x="740.5" y="470" as="targetPoint" />
          </mxGeometry>
        </mxCell>
        <mxCell id="2yctgf6zyrmDkE7ViK6A-97" value="" style="endArrow=none;html=1;rounded=0;entryX=0.5;entryY=1;entryDx=0;entryDy=0;entryPerimeter=0;" parent="1" source="2yctgf6zyrmDkE7ViK6A-44" target="2yctgf6zyrmDkE7ViK6A-48" edge="1">
          <mxGeometry width="50" height="50" relative="1" as="geometry">
            <mxPoint x="790" y="400" as="sourcePoint" />
            <mxPoint x="840" y="350" as="targetPoint" />
          </mxGeometry>
        </mxCell>
        <mxCell id="2yctgf6zyrmDkE7ViK6A-103" value="" style="endArrow=none;html=1;rounded=0;entryX=0.5;entryY=0;entryDx=0;entryDy=0;entryPerimeter=0;" parent="1" source="2yctgf6zyrmDkE7ViK6A-33" target="2yctgf6zyrmDkE7ViK6A-44" edge="1">
          <mxGeometry width="50" height="50" relative="1" as="geometry">
            <mxPoint x="719.5" y="326" as="sourcePoint" />
            <mxPoint x="719.5" y="346.71067811865476" as="targetPoint" />
          </mxGeometry>
        </mxCell>
        <mxCell id="2yctgf6zyrmDkE7ViK6A-115" value="" style="endArrow=none;html=1;rounded=0;entryX=0.12;entryY=0.9;entryDx=0;entryDy=0;entryPerimeter=0;exitX=0.5;exitY=0.32;exitDx=0;exitDy=0;exitPerimeter=0;" parent="1" source="2yctgf6zyrmDkE7ViK6A-24" target="2yctgf6zyrmDkE7ViK6A-5" edge="1">
          <mxGeometry width="50" height="50" relative="1" as="geometry">
            <mxPoint x="280" y="310" as="sourcePoint" />
            <mxPoint x="330" y="260" as="targetPoint" />
          </mxGeometry>
        </mxCell>
        <mxCell id="2yctgf6zyrmDkE7ViK6A-121" value="" style="endArrow=none;html=1;rounded=0;entryX=0.13;entryY=0;entryDx=0;entryDy=0;entryPerimeter=0;exitX=0.93;exitY=0.5;exitDx=0;exitDy=0;exitPerimeter=0;" parent="1" source="2yctgf6zyrmDkE7ViK6A-25" target="2yctgf6zyrmDkE7ViK6A-24" edge="1">
          <mxGeometry width="50" height="50" relative="1" as="geometry">
            <mxPoint x="165" y="733.5" as="sourcePoint" />
            <mxPoint x="165" y="754.2106781186548" as="targetPoint" />
          </mxGeometry>
        </mxCell>
        <mxCell id="2yctgf6zyrmDkE7ViK6A-124" value="" style="endArrow=none;html=1;rounded=0;entryX=0.261;entryY=0.1;entryDx=0;entryDy=0;entryPerimeter=0;" parent="1" source="2yctgf6zyrmDkE7ViK6A-52" target="2yctgf6zyrmDkE7ViK6A-44" edge="1">
          <mxGeometry width="50" height="50" relative="1" as="geometry">
            <mxPoint x="134.5" y="250" as="sourcePoint" />
            <mxPoint x="134.5" y="270.71067811865476" as="targetPoint" />
          </mxGeometry>
        </mxCell>
        <mxCell id="2yctgf6zyrmDkE7ViK6A-126" value="" style="endArrow=none;html=1;rounded=0;entryX=0;entryY=0.5;entryDx=0;entryDy=0;entryPerimeter=0;exitX=1;exitY=0.5;exitDx=0;exitDy=0;exitPerimeter=0;" parent="1" source="2yctgf6zyrmDkE7ViK6A-33" target="2yctgf6zyrmDkE7ViK6A-5" edge="1">
          <mxGeometry width="50" height="50" relative="1" as="geometry">
            <mxPoint x="590" y="410" as="sourcePoint" />
            <mxPoint x="640" y="360" as="targetPoint" />
          </mxGeometry>
        </mxCell>
        <mxCell id="2yctgf6zyrmDkE7ViK6A-130" value="" style="endArrow=none;html=1;rounded=0;entryX=0.86;entryY=0.85;entryDx=0;entryDy=0;entryPerimeter=0;exitX=0.16;exitY=0.5;exitDx=0;exitDy=0;exitPerimeter=0;" parent="1" source="2yctgf6zyrmDkE7ViK6A-47" target="2yctgf6zyrmDkE7ViK6A-67" edge="1">
          <mxGeometry width="50" height="50" relative="1" as="geometry">
            <mxPoint x="180" y="440" as="sourcePoint" />
            <mxPoint x="230" y="390" as="targetPoint" />
          </mxGeometry>
        </mxCell>
        <mxCell id="2yctgf6zyrmDkE7ViK6A-131" value="" style="endArrow=none;html=1;rounded=0;entryX=0.86;entryY=0.85;entryDx=0;entryDy=0;entryPerimeter=0;exitX=0.16;exitY=0.5;exitDx=0;exitDy=0;exitPerimeter=0;" parent="1" source="2yctgf6zyrmDkE7ViK6A-67" target="2yctgf6zyrmDkE7ViK6A-46" edge="1">
          <mxGeometry width="50" height="50" relative="1" as="geometry">
            <mxPoint x="90" y="350" as="sourcePoint" />
            <mxPoint x="140" y="300" as="targetPoint" />
          </mxGeometry>
        </mxCell>
        <mxCell id="2yctgf6zyrmDkE7ViK6A-132" value="" style="endArrow=none;html=1;rounded=0;entryX=0.02;entryY=1;entryDx=0;entryDy=0;entryPerimeter=0;exitX=0.5;exitY=0;exitDx=0;exitDy=0;exitPerimeter=0;" parent="1" source="2yctgf6zyrmDkE7ViK6A-46" target="2yctgf6zyrmDkE7ViK6A-52" edge="1">
          <mxGeometry width="50" height="50" relative="1" as="geometry">
            <mxPoint x="160" y="260" as="sourcePoint" />
            <mxPoint x="210" y="210" as="targetPoint" />
          </mxGeometry>
        </mxCell>
        <mxCell id="2yctgf6zyrmDkE7ViK6A-133" value="" style="endArrow=none;html=1;rounded=0;entryX=0.16;entryY=0.5;entryDx=0;entryDy=0;entryPerimeter=0;exitX=0.83;exitY=0.5;exitDx=0;exitDy=0;exitPerimeter=0;" parent="1" source="2yctgf6zyrmDkE7ViK6A-52" target="2yctgf6zyrmDkE7ViK6A-48" edge="1">
          <mxGeometry width="50" height="50" relative="1" as="geometry">
            <mxPoint x="170" y="150" as="sourcePoint" />
            <mxPoint x="220" y="100" as="targetPoint" />
          </mxGeometry>
        </mxCell>
        <mxCell id="2yctgf6zyrmDkE7ViK6A-135" value="" style="shape=mxgraph.cisco.buildings.branch_office;sketch=0;html=1;pointerEvents=1;dashed=0;fillColor=#036897;strokeColor=#ffffff;strokeWidth=2;verticalLabelPosition=bottom;verticalAlign=top;align=center;outlineConnect=0;" parent="1" vertex="1">
          <mxGeometry x="430" y="55" width="51" height="75" as="geometry" />
        </mxCell>
        <mxCell id="2yctgf6zyrmDkE7ViK6A-136" value="Headquarters (Branch Office)&lt;div&gt;&lt;br&gt;&lt;/div&gt;" style="text;html=1;align=center;verticalAlign=middle;resizable=0;points=[];autosize=1;strokeColor=none;fillColor=none;" parent="1" vertex="1">
          <mxGeometry x="382.88" y="130" width="180" height="40" as="geometry" />
        </mxCell>
        <mxCell id="2yctgf6zyrmDkE7ViK6A-138" value="" style="shape=mxgraph.cisco.security.lock;sketch=0;html=1;pointerEvents=1;dashed=0;fillColor=#036897;strokeColor=#ffffff;strokeWidth=2;verticalLabelPosition=bottom;verticalAlign=top;align=center;outlineConnect=0;" parent="1" vertex="1">
          <mxGeometry x="446" y="523" width="53" height="61" as="geometry" />
        </mxCell>
        <mxCell id="2yctgf6zyrmDkE7ViK6A-141" value="" style="ellipse;whiteSpace=wrap;html=1;aspect=fixed;" parent="1" vertex="1">
          <mxGeometry x="392.25" y="620" width="363.75" height="363.75" as="geometry" />
        </mxCell>
        <mxCell id="2yctgf6zyrmDkE7ViK6A-139" value="" style="shape=mxgraph.cisco.security.lock;sketch=0;html=1;pointerEvents=1;dashed=0;fillColor=#036897;strokeColor=#ffffff;strokeWidth=2;verticalLabelPosition=bottom;verticalAlign=top;align=center;outlineConnect=0;" parent="1" vertex="1">
          <mxGeometry x="520" y="269" width="53" height="61" as="geometry" />
        </mxCell>
        <mxCell id="2yctgf6zyrmDkE7ViK6A-143" value="" style="shape=mxgraph.cisco.computers_and_peripherals.laptop;sketch=0;html=1;pointerEvents=1;dashed=0;fillColor=#036897;strokeColor=#ffffff;strokeWidth=2;verticalLabelPosition=bottom;verticalAlign=top;align=center;outlineConnect=0;" parent="1" vertex="1">
          <mxGeometry x="487.37" y="757" width="70" height="51" as="geometry" />
        </mxCell>
        <mxCell id="2yctgf6zyrmDkE7ViK6A-144" value="" style="sketch=0;aspect=fixed;pointerEvents=1;shadow=0;dashed=0;html=1;strokeColor=none;labelPosition=center;verticalLabelPosition=bottom;verticalAlign=top;align=center;fillColor=#00188D;shape=mxgraph.mscae.enterprise.wireless_connection;rotation=-45;" parent="1" vertex="1">
          <mxGeometry x="582" y="725" width="42" height="50" as="geometry" />
        </mxCell>
        <mxCell id="2yctgf6zyrmDkE7ViK6A-145" value="" style="shape=mxgraph.cisco.routers.wireless_router;sketch=0;html=1;pointerEvents=1;dashed=0;fillColor=#036897;strokeColor=#ffffff;strokeWidth=2;verticalLabelPosition=bottom;verticalAlign=top;align=center;outlineConnect=0;" parent="1" vertex="1">
          <mxGeometry x="610" y="666.75" width="50" height="57" as="geometry" />
        </mxCell>
        <mxCell id="2yctgf6zyrmDkE7ViK6A-146" value="" style="shape=mxgraph.cisco.computers_and_peripherals.scanner;sketch=0;html=1;pointerEvents=1;dashed=0;fillColor=#036897;strokeColor=#ffffff;strokeWidth=2;verticalLabelPosition=bottom;verticalAlign=top;align=center;outlineConnect=0;" parent="1" vertex="1">
          <mxGeometry x="497.37" y="670" width="50" height="55" as="geometry" />
        </mxCell>
        <mxCell id="2yctgf6zyrmDkE7ViK6A-147" value="" style="endArrow=none;html=1;rounded=0;entryX=0;entryY=0.5;entryDx=0;entryDy=0;entryPerimeter=0;exitX=0.93;exitY=0.5;exitDx=0;exitDy=0;exitPerimeter=0;" parent="1" source="2yctgf6zyrmDkE7ViK6A-146" target="2yctgf6zyrmDkE7ViK6A-145" edge="1">
          <mxGeometry width="50" height="50" relative="1" as="geometry">
            <mxPoint x="619.37" y="816.87" as="sourcePoint" />
            <mxPoint x="669.37" y="766.87" as="targetPoint" />
          </mxGeometry>
        </mxCell>
        <mxCell id="2yctgf6zyrmDkE7ViK6A-148" value="" style="endArrow=none;html=1;rounded=0;exitX=0.5;exitY=0.32;exitDx=0;exitDy=0;exitPerimeter=0;entryX=0.5;entryY=1;entryDx=0;entryDy=0;entryPerimeter=0;" parent="1" source="2yctgf6zyrmDkE7ViK6A-151" target="2yctgf6zyrmDkE7ViK6A-5" edge="1">
          <mxGeometry width="50" height="50" relative="1" as="geometry">
            <mxPoint x="760" y="840" as="sourcePoint" />
            <mxPoint x="810" y="790" as="targetPoint" />
          </mxGeometry>
        </mxCell>
        <mxCell id="2yctgf6zyrmDkE7ViK6A-150" value="The Internet&lt;div&gt;&lt;br&gt;&lt;/div&gt;" style="text;html=1;align=center;verticalAlign=middle;resizable=0;points=[];autosize=1;strokeColor=none;fillColor=none;" parent="1" vertex="1">
          <mxGeometry x="678" y="300" width="90" height="40" as="geometry" />
        </mxCell>
        <mxCell id="Nl-CMbaqRYmPsoyRMy4m-6" value="" style="ellipse;whiteSpace=wrap;html=1;aspect=fixed;" vertex="1" parent="1">
          <mxGeometry x="923.12" y="2.629999999999992" width="363.75" height="363.75" as="geometry" />
        </mxCell>
        <mxCell id="Nl-CMbaqRYmPsoyRMy4m-7" value="" style="shape=mxgraph.cisco.computers_and_peripherals.laptop;sketch=0;html=1;pointerEvents=1;dashed=0;fillColor=#036897;strokeColor=#ffffff;strokeWidth=2;verticalLabelPosition=bottom;verticalAlign=top;align=center;outlineConnect=0;" vertex="1" parent="1">
          <mxGeometry x="1070" y="234.5" width="70" height="51" as="geometry" />
        </mxCell>
        <mxCell id="Nl-CMbaqRYmPsoyRMy4m-8" value="" style="sketch=0;aspect=fixed;pointerEvents=1;shadow=0;dashed=0;html=1;strokeColor=none;labelPosition=center;verticalLabelPosition=bottom;verticalAlign=top;align=center;fillColor=#00188D;shape=mxgraph.mscae.enterprise.wireless_connection;rotation=-90;" vertex="1" parent="1">
          <mxGeometry x="1092.5200000000002" y="160.76" width="32.96" height="39.24" as="geometry" />
        </mxCell>
        <mxCell id="Nl-CMbaqRYmPsoyRMy4m-9" value="" style="shape=mxgraph.cisco.routers.wireless_router;sketch=0;html=1;pointerEvents=1;dashed=0;fillColor=#036897;strokeColor=#ffffff;strokeWidth=2;verticalLabelPosition=bottom;verticalAlign=top;align=center;outlineConnect=0;" vertex="1" parent="1">
          <mxGeometry x="950" y="156" width="50" height="57" as="geometry" />
        </mxCell>
        <mxCell id="Nl-CMbaqRYmPsoyRMy4m-10" value="" style="shape=mxgraph.cisco.computers_and_peripherals.scanner;sketch=0;html=1;pointerEvents=1;dashed=0;fillColor=#036897;strokeColor=#ffffff;strokeWidth=2;verticalLabelPosition=bottom;verticalAlign=top;align=center;outlineConnect=0;" vertex="1" parent="1">
          <mxGeometry x="1060" y="100" width="50" height="55" as="geometry" />
        </mxCell>
        <mxCell id="Nl-CMbaqRYmPsoyRMy4m-19" value="" style="endArrow=none;html=1;rounded=0;entryX=0.05;entryY=1;entryDx=0;entryDy=0;entryPerimeter=0;exitX=1;exitY=0.5;exitDx=0;exitDy=0;exitPerimeter=0;" edge="1" parent="1" source="Nl-CMbaqRYmPsoyRMy4m-9" target="Nl-CMbaqRYmPsoyRMy4m-10">
          <mxGeometry width="50" height="50" relative="1" as="geometry">
            <mxPoint x="1030" y="210" as="sourcePoint" />
            <mxPoint x="1080" y="160" as="targetPoint" />
          </mxGeometry>
        </mxCell>
        <mxCell id="Nl-CMbaqRYmPsoyRMy4m-20" value="" style="endArrow=none;html=1;rounded=0;exitX=0.5;exitY=0.32;exitDx=0;exitDy=0;exitPerimeter=0;entryX=0.5;entryY=1;entryDx=0;entryDy=0;entryPerimeter=0;" edge="1" parent="1" source="2yctgf6zyrmDkE7ViK6A-145" target="2yctgf6zyrmDkE7ViK6A-151">
          <mxGeometry width="50" height="50" relative="1" as="geometry">
            <mxPoint x="642" y="765" as="sourcePoint" />
            <mxPoint x="717" y="400" as="targetPoint" />
          </mxGeometry>
        </mxCell>
        <mxCell id="2yctgf6zyrmDkE7ViK6A-151" value="" style="shape=mxgraph.cisco.security.lock;sketch=0;html=1;pointerEvents=1;dashed=0;fillColor=#036897;strokeColor=#ffffff;strokeWidth=2;verticalLabelPosition=bottom;verticalAlign=top;align=center;outlineConnect=0;" parent="1" vertex="1">
          <mxGeometry x="640" y="530" width="53" height="61" as="geometry" />
        </mxCell>
        <mxCell id="Nl-CMbaqRYmPsoyRMy4m-22" value="" style="endArrow=none;html=1;rounded=0;entryX=0.12;entryY=0.93;entryDx=0;entryDy=0;entryPerimeter=0;exitX=0.88;exitY=0.1;exitDx=0;exitDy=0;exitPerimeter=0;" edge="1" parent="1" source="Nl-CMbaqRYmPsoyRMy4m-23" target="Nl-CMbaqRYmPsoyRMy4m-9">
          <mxGeometry width="50" height="50" relative="1" as="geometry">
            <mxPoint x="940" y="270" as="sourcePoint" />
            <mxPoint x="990" y="220" as="targetPoint" />
          </mxGeometry>
        </mxCell>
        <mxCell id="Nl-CMbaqRYmPsoyRMy4m-24" value="" style="endArrow=none;html=1;rounded=0;entryX=0.12;entryY=0.93;entryDx=0;entryDy=0;entryPerimeter=0;exitX=0.88;exitY=0.1;exitDx=0;exitDy=0;exitPerimeter=0;" edge="1" parent="1" source="2yctgf6zyrmDkE7ViK6A-5" target="Nl-CMbaqRYmPsoyRMy4m-23">
          <mxGeometry width="50" height="50" relative="1" as="geometry">
            <mxPoint x="747" y="352" as="sourcePoint" />
            <mxPoint x="956" y="209" as="targetPoint" />
          </mxGeometry>
        </mxCell>
        <mxCell id="Nl-CMbaqRYmPsoyRMy4m-23" value="" style="shape=mxgraph.cisco.security.lock;sketch=0;html=1;pointerEvents=1;dashed=0;fillColor=#036897;strokeColor=#ffffff;strokeWidth=2;verticalLabelPosition=bottom;verticalAlign=top;align=center;outlineConnect=0;" vertex="1" parent="1">
          <mxGeometry x="820" y="249.12" width="53" height="61" as="geometry" />
        </mxCell>
        <mxCell id="Nl-CMbaqRYmPsoyRMy4m-26" value="" style="ellipse;whiteSpace=wrap;html=1;aspect=fixed;" vertex="1" parent="1">
          <mxGeometry x="791" y="629.27" width="363.75" height="363.75" as="geometry" />
        </mxCell>
        <mxCell id="Nl-CMbaqRYmPsoyRMy4m-28" value="" style="sketch=0;aspect=fixed;pointerEvents=1;shadow=0;dashed=0;html=1;strokeColor=none;labelPosition=center;verticalLabelPosition=bottom;verticalAlign=top;align=center;fillColor=#00188D;shape=mxgraph.mscae.enterprise.wireless_connection;rotation=-45;" vertex="1" parent="1">
          <mxGeometry x="909.2399999999999" y="768.54" width="42" height="50" as="geometry" />
        </mxCell>
        <mxCell id="Nl-CMbaqRYmPsoyRMy4m-29" value="" style="shape=mxgraph.cisco.routers.wireless_router;sketch=0;html=1;pointerEvents=1;dashed=0;fillColor=#036897;strokeColor=#ffffff;strokeWidth=2;verticalLabelPosition=bottom;verticalAlign=top;align=center;outlineConnect=0;" vertex="1" parent="1">
          <mxGeometry x="923.2399999999999" y="698.54" width="50" height="57" as="geometry" />
        </mxCell>
        <mxCell id="Nl-CMbaqRYmPsoyRMy4m-30" value="" style="shape=mxgraph.cisco.computers_and_peripherals.scanner;sketch=0;html=1;pointerEvents=1;dashed=0;fillColor=#036897;strokeColor=#ffffff;strokeWidth=2;verticalLabelPosition=bottom;verticalAlign=top;align=center;outlineConnect=0;" vertex="1" parent="1">
          <mxGeometry x="1011.2399999999999" y="698.54" width="50" height="55" as="geometry" />
        </mxCell>
        <mxCell id="Nl-CMbaqRYmPsoyRMy4m-32" value="" style="endArrow=none;html=1;rounded=0;exitX=0.5;exitY=0.32;exitDx=0;exitDy=0;exitPerimeter=0;entryX=0.92;entryY=0.93;entryDx=0;entryDy=0;entryPerimeter=0;" edge="1" parent="1" source="Nl-CMbaqRYmPsoyRMy4m-29" target="Nl-CMbaqRYmPsoyRMy4m-33">
          <mxGeometry width="50" height="50" relative="1" as="geometry">
            <mxPoint x="1212.87" y="763.27" as="sourcePoint" />
            <mxPoint x="950.0000000000002" y="530" as="targetPoint" />
          </mxGeometry>
        </mxCell>
        <mxCell id="Nl-CMbaqRYmPsoyRMy4m-33" value="" style="shape=mxgraph.cisco.security.lock;sketch=0;html=1;pointerEvents=1;dashed=0;fillColor=#036897;strokeColor=#ffffff;strokeWidth=2;verticalLabelPosition=bottom;verticalAlign=top;align=center;outlineConnect=0;" vertex="1" parent="1">
          <mxGeometry x="818.3699999999999" y="530" width="53" height="61" as="geometry" />
        </mxCell>
        <mxCell id="Nl-CMbaqRYmPsoyRMy4m-35" value="" style="endArrow=none;html=1;rounded=0;entryX=0.5;entryY=0;entryDx=0;entryDy=0;entryPerimeter=0;exitX=0.88;exitY=0.9;exitDx=0;exitDy=0;exitPerimeter=0;" edge="1" parent="1" source="2yctgf6zyrmDkE7ViK6A-5" target="Nl-CMbaqRYmPsoyRMy4m-33">
          <mxGeometry width="50" height="50" relative="1" as="geometry">
            <mxPoint x="870" y="480" as="sourcePoint" />
            <mxPoint x="920" y="430" as="targetPoint" />
          </mxGeometry>
        </mxCell>
        <mxCell id="Nl-CMbaqRYmPsoyRMy4m-37" value="" style="endArrow=none;html=1;rounded=0;entryX=1;entryY=0.5;entryDx=0;entryDy=0;entryPerimeter=0;exitX=0.33;exitY=0.5;exitDx=0;exitDy=0;exitPerimeter=0;" edge="1" parent="1" source="Nl-CMbaqRYmPsoyRMy4m-30" target="Nl-CMbaqRYmPsoyRMy4m-29">
          <mxGeometry width="50" height="50" relative="1" as="geometry">
            <mxPoint x="1138.24" y="799.27" as="sourcePoint" />
            <mxPoint x="1188.24" y="749.27" as="targetPoint" />
          </mxGeometry>
        </mxCell>
        <mxCell id="Nl-CMbaqRYmPsoyRMy4m-39" value="" style="shape=mxgraph.cisco.buildings.small_business;sketch=0;html=1;pointerEvents=1;dashed=0;fillColor=#036897;strokeColor=#ffffff;strokeWidth=2;verticalLabelPosition=bottom;verticalAlign=top;align=center;outlineConnect=0;" vertex="1" parent="1">
          <mxGeometry x="1168.24" y="575.27" width="98" height="54" as="geometry" />
        </mxCell>
        <mxCell id="Nl-CMbaqRYmPsoyRMy4m-40" value="" style="ellipse;whiteSpace=wrap;html=1;aspect=fixed;" vertex="1" parent="1">
          <mxGeometry x="1103.12" y="360" width="363.75" height="363.75" as="geometry" />
        </mxCell>
        <mxCell id="Nl-CMbaqRYmPsoyRMy4m-41" value="" style="shape=mxgraph.cisco.computers_and_peripherals.laptop;sketch=0;html=1;pointerEvents=1;dashed=0;fillColor=#036897;strokeColor=#ffffff;strokeWidth=2;verticalLabelPosition=bottom;verticalAlign=top;align=center;outlineConnect=0;" vertex="1" parent="1">
          <mxGeometry x="1196.2399999999998" y="560" width="70" height="51" as="geometry" />
        </mxCell>
        <mxCell id="Nl-CMbaqRYmPsoyRMy4m-42" value="" style="sketch=0;aspect=fixed;pointerEvents=1;shadow=0;dashed=0;html=1;strokeColor=none;labelPosition=center;verticalLabelPosition=bottom;verticalAlign=top;align=center;fillColor=#00188D;shape=mxgraph.mscae.enterprise.wireless_connection;rotation=-120;" vertex="1" parent="1">
          <mxGeometry x="1183.2800000000002" y="530" width="32.96" height="39.24" as="geometry" />
        </mxCell>
        <mxCell id="Nl-CMbaqRYmPsoyRMy4m-43" value="" style="shape=mxgraph.cisco.routers.wireless_router;sketch=0;html=1;pointerEvents=1;dashed=0;fillColor=#036897;strokeColor=#ffffff;strokeWidth=2;verticalLabelPosition=bottom;verticalAlign=top;align=center;outlineConnect=0;" vertex="1" parent="1">
          <mxGeometry x="1130" y="473.37" width="50" height="57" as="geometry" />
        </mxCell>
        <mxCell id="Nl-CMbaqRYmPsoyRMy4m-44" value="" style="shape=mxgraph.cisco.computers_and_peripherals.scanner;sketch=0;html=1;pointerEvents=1;dashed=0;fillColor=#036897;strokeColor=#ffffff;strokeWidth=2;verticalLabelPosition=bottom;verticalAlign=top;align=center;outlineConnect=0;" vertex="1" parent="1">
          <mxGeometry x="1216.24" y="450" width="50" height="55" as="geometry" />
        </mxCell>
        <mxCell id="Nl-CMbaqRYmPsoyRMy4m-45" value="" style="shape=mxgraph.cisco.security.lock;sketch=0;html=1;pointerEvents=1;dashed=0;fillColor=#036897;strokeColor=#ffffff;strokeWidth=2;verticalLabelPosition=bottom;verticalAlign=top;align=center;outlineConnect=0;" vertex="1" parent="1">
          <mxGeometry x="882.5" y="366.38" width="53" height="61" as="geometry" />
        </mxCell>
        <mxCell id="Nl-CMbaqRYmPsoyRMy4m-47" value="" style="shape=mxgraph.cisco.computers_and_peripherals.laptop;sketch=0;html=1;pointerEvents=1;dashed=0;fillColor=#036897;strokeColor=#ffffff;strokeWidth=2;verticalLabelPosition=bottom;verticalAlign=top;align=center;outlineConnect=0;" vertex="1" parent="1">
          <mxGeometry x="825.88" y="785.65" width="70" height="51" as="geometry" />
        </mxCell>
        <mxCell id="Nl-CMbaqRYmPsoyRMy4m-48" value="" style="endArrow=none;html=1;rounded=0;entryX=0.92;entryY=0.93;entryDx=0;entryDy=0;entryPerimeter=0;exitX=0;exitY=0.5;exitDx=0;exitDy=0;exitPerimeter=0;" edge="1" parent="1" source="Nl-CMbaqRYmPsoyRMy4m-43" target="Nl-CMbaqRYmPsoyRMy4m-45">
          <mxGeometry width="50" height="50" relative="1" as="geometry">
            <mxPoint x="940" y="460" as="sourcePoint" />
            <mxPoint x="990" y="410" as="targetPoint" />
          </mxGeometry>
        </mxCell>
        <mxCell id="Nl-CMbaqRYmPsoyRMy4m-50" value="" style="endArrow=none;html=1;rounded=0;exitX=1;exitY=0.5;exitDx=0;exitDy=0;exitPerimeter=0;entryX=0.33;entryY=0.5;entryDx=0;entryDy=0;entryPerimeter=0;" edge="1" parent="1" source="Nl-CMbaqRYmPsoyRMy4m-43" target="Nl-CMbaqRYmPsoyRMy4m-44">
          <mxGeometry width="50" height="50" relative="1" as="geometry">
            <mxPoint x="1170" y="510" as="sourcePoint" />
            <mxPoint x="1220" y="460" as="targetPoint" />
          </mxGeometry>
        </mxCell>
        <mxCell id="Nl-CMbaqRYmPsoyRMy4m-53" value="" style="endArrow=none;html=1;rounded=0;entryX=0;entryY=0.5;entryDx=0;entryDy=0;entryPerimeter=0;exitX=1;exitY=0.5;exitDx=0;exitDy=0;exitPerimeter=0;" edge="1" parent="1" source="2yctgf6zyrmDkE7ViK6A-5" target="Nl-CMbaqRYmPsoyRMy4m-45">
          <mxGeometry width="50" height="50" relative="1" as="geometry">
            <mxPoint x="850" y="520" as="sourcePoint" />
            <mxPoint x="900" y="470" as="targetPoint" />
          </mxGeometry>
        </mxCell>
        <mxCell id="Nl-CMbaqRYmPsoyRMy4m-54" value="" style="shape=mxgraph.cisco.computers_and_peripherals.laptop;sketch=0;html=1;pointerEvents=1;dashed=0;fillColor=#036897;strokeColor=#ffffff;strokeWidth=2;verticalLabelPosition=bottom;verticalAlign=top;align=center;outlineConnect=0;" vertex="1" parent="1">
          <mxGeometry x="890" y="836.65" width="70" height="51" as="geometry" />
        </mxCell>
        <mxCell id="Nl-CMbaqRYmPsoyRMy4m-55" value="" style="shape=mxgraph.cisco.computers_and_peripherals.laptop;sketch=0;html=1;pointerEvents=1;dashed=0;fillColor=#036897;strokeColor=#ffffff;strokeWidth=2;verticalLabelPosition=bottom;verticalAlign=top;align=center;outlineConnect=0;" vertex="1" parent="1">
          <mxGeometry x="539.13" y="808" width="70" height="51" as="geometry" />
        </mxCell>
        <mxCell id="Nl-CMbaqRYmPsoyRMy4m-56" value="" style="shape=mxgraph.cisco.computers_and_peripherals.laptop;sketch=0;html=1;pointerEvents=1;dashed=0;fillColor=#036897;strokeColor=#ffffff;strokeWidth=2;verticalLabelPosition=bottom;verticalAlign=top;align=center;outlineConnect=0;" vertex="1" parent="1">
          <mxGeometry x="109.5" y="808" width="70" height="51" as="geometry" />
        </mxCell>
        <mxCell id="Nl-CMbaqRYmPsoyRMy4m-57" value="" style="shape=mxgraph.cisco.computers_and_peripherals.laptop;sketch=0;html=1;pointerEvents=1;dashed=0;fillColor=#036897;strokeColor=#ffffff;strokeWidth=2;verticalLabelPosition=bottom;verticalAlign=top;align=center;outlineConnect=0;" vertex="1" parent="1">
          <mxGeometry x="1286.87" y="560" width="70" height="51" as="geometry" />
        </mxCell>
        <mxCell id="Nl-CMbaqRYmPsoyRMy4m-58" value="" style="shape=mxgraph.cisco.buildings.small_business;sketch=0;html=1;pointerEvents=1;dashed=0;fillColor=#036897;strokeColor=#ffffff;strokeWidth=2;verticalLabelPosition=bottom;verticalAlign=top;align=center;outlineConnect=0;" vertex="1" parent="1">
          <mxGeometry x="935.5" y="530.37" width="98" height="54" as="geometry" />
        </mxCell>
        <mxCell id="Nl-CMbaqRYmPsoyRMy4m-59" value="" style="shape=mxgraph.cisco.misc.access_point;html=1;pointerEvents=1;dashed=0;fillColor=#036897;strokeColor=#ffffff;strokeWidth=2;verticalLabelPosition=bottom;verticalAlign=top;align=center;outlineConnect=0;" vertex="1" parent="1">
          <mxGeometry x="309" y="297" width="75" height="34" as="geometry" />
        </mxCell>
        <mxCell id="Nl-CMbaqRYmPsoyRMy4m-60" value="" style="shape=mxgraph.cisco.misc.access_point;html=1;pointerEvents=1;dashed=0;fillColor=#036897;strokeColor=#ffffff;strokeWidth=2;verticalLabelPosition=bottom;verticalAlign=top;align=center;outlineConnect=0;" vertex="1" parent="1">
          <mxGeometry x="1163" y="107" width="75" height="34" as="geometry" />
        </mxCell>
        <mxCell id="Nl-CMbaqRYmPsoyRMy4m-61" value="" style="shape=mxgraph.cisco.misc.access_point;html=1;pointerEvents=1;dashed=0;fillColor=#036897;strokeColor=#ffffff;strokeWidth=2;verticalLabelPosition=bottom;verticalAlign=top;align=center;outlineConnect=0;" vertex="1" parent="1">
          <mxGeometry x="1340" y="444" width="75" height="34" as="geometry" />
        </mxCell>
        <mxCell id="Nl-CMbaqRYmPsoyRMy4m-62" value="" style="sketch=0;aspect=fixed;pointerEvents=1;shadow=0;dashed=0;html=1;strokeColor=none;labelPosition=center;verticalLabelPosition=bottom;verticalAlign=top;align=center;fillColor=#00188D;shape=mxgraph.mscae.enterprise.wireless_connection;rotation=-75;" vertex="1" parent="1">
          <mxGeometry x="1340.0000000000002" y="505" width="32.96" height="39.24" as="geometry" />
        </mxCell>
        <mxCell id="Nl-CMbaqRYmPsoyRMy4m-63" value="" style="shape=mxgraph.cisco.computers_and_peripherals.laptop;sketch=0;html=1;pointerEvents=1;dashed=0;fillColor=#036897;strokeColor=#ffffff;strokeWidth=2;verticalLabelPosition=bottom;verticalAlign=top;align=center;outlineConnect=0;" vertex="1" parent="1">
          <mxGeometry x="1168.24" y="207.5" width="70" height="51" as="geometry" />
        </mxCell>
        <mxCell id="Nl-CMbaqRYmPsoyRMy4m-64" value="" style="sketch=0;aspect=fixed;pointerEvents=1;shadow=0;dashed=0;html=1;strokeColor=none;labelPosition=center;verticalLabelPosition=bottom;verticalAlign=top;align=center;fillColor=#00188D;shape=mxgraph.mscae.enterprise.wireless_connection;rotation=-95;" vertex="1" parent="1">
          <mxGeometry x="1196.2400000000002" y="160.76" width="32.96" height="39.24" as="geometry" />
        </mxCell>
      </root>
    </mxGraphModel>
  </diagram>
</mxfile>
